<svg width="48" height="48" viewBox="0 0 48 48" fill="none" xmlns="http://www.w3.org/2000/svg">
  <rect width="48" height="48" rx="8" fill="white" fill-opacity="0.9"/>
  <rect width="48" height="48" rx="8" fill="url(#gradient1)" fill-opacity="0.8"/>
  <path d="M31.82 19.54L31.82 19.54L31.82 19.53L31.82 19.53C31.82 19.53 31.82 19.54 31.82 19.54Z" fill="white" fill-opacity="0.4"/>
  <path fill-rule="evenodd" clip-rule="evenodd" d="M19.19 21.01C19.3 20.79 19.53 20.56 19.73 20.47C19.91 20.4 20.04 20.4 20.25 20.5C20.49 20.62 20.67 20.9 20.93 21.56C21.31 22.53 21.5 22.82 21.76 22.79C22.01 22.77 22.08 22.63 22.08 22.14C22.08 21.92 22.06 21.57 22.04 21.38C21.99 20.88 22 20.87 22.62 20.88C23.44 20.89 23.86 20.93 23.92 21.01C23.95 21.05 24.01 21.32 24.04 21.61C24.18 22.6 24.4 23.06 24.8 23.18C25.15 23.27 25.69 23.31 26.37 23.3C27.03 23.28 27.08 23.28 27.28 23.17C27.4 23.11 27.55 23 27.61 22.92C27.81 22.68 28.02 22.21 28.16 21.65C28.25 21.29 28.32 21.09 28.37 21.05C28.42 21.02 28.53 21 28.68 21.01L28.9 21.02L29 21.51C29.05 21.79 29.16 22.21 29.24 22.46C29.32 22.71 29.45 23.18 29.52 23.51L29.66 24.1L29.48 24.26C29.3 24.43 29.27 24.54 29.35 24.69C29.4 24.79 29.63 24.8 29.81 24.71C29.97 24.62 30.17 24.38 30.21 24.23C30.24 24.06 30.21 23.76 30.11 23.36C30.04 23.08 30.04 23.06 30.1 23.07C30.49 23.19 30.75 23.23 31.22 23.25C31.7 23.27 31.78 23.28 31.78 23.34C31.78 23.48 31.61 24.47 31.53 24.77C31.42 25.19 31.12 26.09 30.92 26.55C30.67 27.16 29.99 28.46 29.79 28.72C29.44 29.16 28.82 29.48 28.22 29.53C27.83 29.57 27.11 29.48 26.73 29.36C25.69 29.03 24.15 28.07 23.27 27.2C22.76 26.7 22.29 25.9 21.85 24.8C21.68 24.38 21.59 24.19 21.5 24.13C21.39 24.05 21.38 24.05 21.09 24.12C20.47 24.26 20.18 24.19 19.81 23.83C19.13 23.15 18.82 21.74 19.19 21.01ZM19.97 21.07C19.85 21.11 19.76 21.22 19.76 21.31C19.76 21.35 19.82 21.44 19.89 21.51L20.02 21.63L19.99 22.24C19.95 22.97 19.98 23.05 20.31 23.2C20.63 23.34 20.81 23.36 20.97 23.26C21.04 23.22 21.1 23.15 21.1 23.1C21.1 23 20.91 22.84 20.77 22.84C20.72 22.84 20.63 22.82 20.59 22.8C20.51 22.76 20.51 22.73 20.53 22.29C20.57 21.68 20.51 21.37 20.32 21.18C20.19 21.05 20.1 21.02 19.97 21.07Z" fill="white" fill-opacity="0.6"/>
  <defs>
    <linearGradient id="gradient1" x1="0" y1="0" x2="48" y2="48" gradientUnits="userSpaceOnUse">
      <stop offset="0%" stop-color="#3F3F3F"/>
      <stop offset="50%" stop-color="#8F8F8F"/>
      <stop offset="100%" stop-color="#3F3F3F"/>
    </linearGradient>
  </defs>
</svg>