<svg width="48" height="48" viewBox="0 0 48 48" fill="none" xmlns="http://www.w3.org/2000/svg">
  <rect width="48" height="48" rx="8" fill="white" fill-opacity="0.9"/>
  <rect width="48" height="48" rx="8" fill="url(#gradient3)" fill-opacity="0.8"/>
  <path fill-rule="evenodd" clip-rule="evenodd" d="M24 10C18.48 10 14 14.48 14 20V32C14 33.1 14.9 34 16 34C17.1 34 18 33.1 18 32V30C18 29.45 18.45 29 19 29C19.55 29 20 29.45 20 30V32C20 33.1 20.9 34 22 34C23.1 34 24 33.1 24 32V30C24 29.45 24.45 29 25 29C25.55 29 26 29.45 26 30V32C26 33.1 26.9 34 28 34C29.1 34 30 33.1 30 32V30C30 29.45 30.45 29 31 29C31.55 29 32 29.45 32 30V32C32 33.1 32.9 34 34 34C35.1 34 36 33.1 36 32V20C36 14.48 31.52 10 26 10H24Z" fill="white" fill-opacity="0.8"/>
  <circle cx="20" cy="18" r="2" fill="#333"/>
  <circle cx="28" cy="18" r="2" fill="#333"/>
  <path d="M20 22C20 21.45 20.45 21 21 21H27C27.55 21 28 21.45 28 22C28 22.55 27.55 23 27 23H21C20.45 23 20 22.55 20 22Z" fill="#333"/>
  <defs>
    <linearGradient id="gradient3" x1="0" y1="0" x2="48" y2="48" gradientUnits="userSpaceOnUse">
      <stop offset="0%" stop-color="#E0E0E0"/>
      <stop offset="50%" stop-color="#F5F5F5"/>
      <stop offset="100%" stop-color="#E0E0E0"/>
    </linearGradient>
  </defs>
</svg>