<svg width="48" height="48" viewBox="0 0 48 48" fill="none" xmlns="http://www.w3.org/2000/svg">
  <rect width="48" height="48" rx="8" fill="white" fill-opacity="0.9"/>
  <rect width="48" height="48" rx="8" fill="url(#gradient2)" fill-opacity="0.8"/>
  <path d="M20.26 37.35C20.72 37.13 21.74 36.49 21.91 36.33C21.98 36.26 22.04 36.24 22.13 36.27C22.42 36.35 22.86 36.42 23.59 36.48C24.01 36.51 24.36 36.56 24.36 36.58C24.36 36.61 24.17 36.79 23.93 37C23.17 37.65 21.87 38.37 21.16 38.52C20.97 38.56 20.63 38.58 20.31 38.56C19.8 38.54 19.76 38.53 19.66 38.41C19.53 38.27 19.41 38.24 19.24 38.32C19.16 38.36 19.09 38.34 18.88 38.23C18.47 38 18.45 37.95 18.71 37.89C19.13 37.81 19.81 37.57 20.26 37.35Z" fill="white" fill-opacity="0.4"/>
  <path d="M17.45 40.65C17.58 40.23 17.89 39.34 18.06 38.95C18.09 38.88 18.12 38.83 18.13 38.83C18.15 38.84 18.56 39.09 18.7 39.19C18.74 39.22 18.12 40.72 17.93 41.05C17.65 41.54 17.25 41.96 16.89 42.15C16.75 42.23 16.61 42.29 16.59 42.29C16.56 42.29 16.64 42.17 16.76 42.03C17.07 41.64 17.29 41.22 17.45 40.65Z" fill="white" fill-opacity="0.4"/>
  <path fill-rule="evenodd" clip-rule="evenodd" d="M24 12C18.48 12 14 16.48 14 22C14 27.52 18.48 32 24 32C29.52 32 34 27.52 34 22C34 16.48 29.52 12 24 12ZM24 14C28.42 14 32 17.58 32 22C32 26.42 28.42 30 24 30C19.58 30 16 26.42 16 22C16 17.58 19.58 14 24 14Z" fill="white" fill-opacity="0.6"/>
  <path d="M20 20C20 18.9 20.9 18 22 18C23.1 18 24 18.9 24 20C24 21.1 23.1 22 22 22C20.9 22 20 21.1 20 20Z" fill="#333"/>
  <path d="M24 20C24 18.9 24.9 18 26 18C27.1 18 28 18.9 28 20C28 21.1 27.1 22 26 22C24.9 22 24 21.1 24 20Z" fill="#333"/>
  <path d="M20 24C20 23.45 20.45 23 21 23H27C27.55 23 28 23.45 28 24C28 24.55 27.55 25 27 25H21C20.45 25 20 24.55 20 24Z" fill="#333"/>
  <defs>
    <linearGradient id="gradient2" x1="0" y1="0" x2="48" y2="48" gradientUnits="userSpaceOnUse">
      <stop offset="0%" stop-color="#4A90E2"/>
      <stop offset="50%" stop-color="#7ED321"/>
      <stop offset="100%" stop-color="#4A90E2"/>
    </linearGradient>
  </defs>
</svg>